<svg width="367" height="238" viewBox="0 0 367 238" fill="none" xmlns="http://www.w3.org/2000/svg">
<path d="M364.008 87.1397C364.008 87.1397 355.656 40.9089 295.937 12.3541C236.219 -16.2006 208.614 12.224 178.601 24.0703C148.588 35.9167 132.301 19.582 82.1907 11.9013C32.0801 4.22073 -11.3157 80.7949 2.88024 140.627C17.0761 200.459 48.3874 221.757 116.854 235.358C185.321 248.959 225.818 204.098 274.25 212.243C322.682 220.387 380.289 174.621 364.008 87.1397Z" fill="#CFCFCF"/>
<path opacity="0.7" d="M364.008 87.1397C364.008 87.1397 355.656 40.9089 295.937 12.3541C236.219 -16.2006 208.614 12.224 178.601 24.0703C148.588 35.9167 132.301 19.582 82.1907 11.9013C32.0801 4.22073 -11.3157 80.7949 2.88024 140.627C17.0761 200.459 48.3874 221.757 116.854 235.358C185.321 248.959 225.818 204.098 274.25 212.243C322.682 220.387 380.289 174.621 364.008 87.1397Z" fill="white"/>
</svg>
